<svg 
    width="20" 
    height="20" 
    viewBox="0 0 24 24" 
    fill="#0000000" 
    xmlns="http://www.w3.org/2000/svg"
  >
    <path d="M12 2.163c3.204 0 3.584.012 4.85.07 1.206.055 1.965.24 2.418.413.602.231 1.033.508 1.49.964s.733.888.964 1.49c.174.453.358 1.213.413 2.418.058 1.267.07 1.647.07 4.851s-.012 3.584-.07 4.85c-.055 1.206-.24 1.965-.413 2.418-.231.602-.508 1.033-.964 1.49s-.888.733-1.49.964c-.453.174-1.213.358-2.418.413-1.267.058-1.647.07-4.851.07s-3.584-.012-4.85-.07c-1.206-.055-1.965-.24-2.418-.413a4.602 4.602 0 0 1-1.49-.964 4.602 4.602 0 0 1-.964-1.49c-.174-.453-.358-1.213-.413-2.418C2.175 15.787 2.163 15.407 2.163 12s.012-3.584.07-4.85c.055-1.206.24-1.965.413-2.418.231-.602.508-1.033.964-1.49a4.602 4.602 0 0 1 1.49-.964c.453-.174 1.213-.358 2.418-.413C8.416 2.175 8.796 2.163 12 2.163zm0-2.163C8.741 0 8.332.013 7.052.072 5.755.131 4.775.333 4.01.631a6.643 6.643 0 0 0-2.415 1.415A6.643 6.643 0 0 0 .18 4.46c-.298.765-.5 1.745-.559 3.042C.013 8.332 0 8.741 0 12s.013 3.668.072 4.948c.059 1.297.261 2.277.559 3.042.298.765.658 1.387 1.415 2.144a6.643 6.643 0 0 0 2.415 1.415c.765.298 1.745.5 3.042.559 1.28.059 1.689.072 4.948.072s3.668-.013 4.948-.072c1.297-.059 2.277-.261 3.042-.559a6.643 6.643 0 0 0 2.415-1.415 6.643 6.643 0 0 0 1.415-2.415c.298-.765.5-1.745.559-3.042.059-1.28.072-1.689.072-4.948s-.013-3.668-.072-4.948c-.059-1.297-.261-2.277-.559-3.042a6.643 6.643 0 0 0-1.415-2.415A6.643 6.643 0 0 0 19.99.631C19.225.333 18.245.131 16.948.072 15.668.013 15.259 0 12 0zm0 5.838c-3.408 0-6.162 2.754-6.162 6.162S8.592 18.162 12 18.162 18.162 15.408 18.162 12 15.408 5.838 12 5.838zm0 10.338c-2.304 0-4.176-1.872-4.176-4.176S9.696 7.824 12 7.824s4.176 1.872 4.176 4.176S14.304 16.176 12 16.176zm6.406-11.845a1.44 1.44 0 1 0 0 2.88 1.44 1.44 0 0 0 0-2.88z"/>
  </svg>